#!OML:ASF E:\Style4\Style4.ASF
:FULLY-SPECIFIED
:DEGREES
2259
root 0.414461 18.2828 -1.00181 7.11098 10.7235 1.68965
lowerback 8.95018 1.24529 -0.381872
upperback -3.0021 1.62003 -0.0219983
thorax -8.21503 0.808656 -0.0662747
lowerneck -14.7971 -3.50806 -3.68029
upperneck 5.83762 -4.36439 4.00469
head 4.30422 -1.99282 1.48305
rclavicle 1.07841e-014 -9.93923e-015
rhumerus -45.5691 6.23967 -94.5217
rradius 48.1073
rwrist 18.2369
rhand 5.91761 -0.542754
rfingers 7.12502
rthumb 31.2448 -27.8973
lclavicle 1.07841e-014 -9.93923e-015
lhumerus -51.1685 -14.6378 96.4984
lradius 55.8996
lwrist -2.56002
lhand 1.00222 35.61
lfingers 7.12502
lthumb 26.55 63.7693
rfemur -9.79334 5.1137 16.4036
rtibia 14.8252
rfoot -12.8017 -22.0427
rtoes -3.09482
lfemur -11.7503 -9.5149 -20.8464
ltibia 12.0444
lfoot -8.33206 6.75684
ltoes -10.9227
2260
root 0.412151 18.2861 -1.01587 7.21159 10.8 1.68444
lowerback 9.1155 1.22936 -0.370927
upperback -2.92198 1.60024 -0.00692103
thorax -8.22474 0.79851 -0.0560185
lowerneck -14.8576 -3.52533 -3.73923
upperneck 5.34361 -4.36738 4.10085
head 4.16483 -1.99128 1.52442
rclavicle 3.09607e-014 3.18055e-015
rhumerus -45.6803 6.36912 -94.6112
rradius 48.3763
rwrist 18.288
rhand 5.74888 -0.496332
rfingers 7.12502
rthumb 31.084 -27.8818
lclavicle 3.09607e-014 3.18055e-015
lhumerus -51.2203 -14.6703 96.5132
lradius 56.1385
lwrist -2.59029
lhand 0.958159 35.5971
lfingers 7.12502
lthumb 26.5078 63.7627
rfemur -9.94763 5.12739 16.4059
rtibia 14.8588
rfoot -12.8264 -22.1354
rtoes -2.9541
lfemur -11.8958 -9.49352 -20.8186
ltibia 11.9712
lfoot -8.08897 6.68799
ltoes -11.3366
2261
root 0.410063 18.2867 -1.03158 7.32623 10.8432 1.68457
lowerback 9.25829 1.22432 -0.377444
upperback -2.81767 1.59391 0.0209151
thorax -8.19618 0.796242 -0.0236923
lowerneck -14.949 -3.5468 -3.79145
upperneck 4.78792 -4.36794 4.13635
head 4.00968 -1.9918 1.54622
rclavicle -8.94531e-016 -1.31198e-014
rhumerus -45.7308 6.5289 -94.6592
rradius 48.6609
rwrist 18.2943
rhand 5.59606 -0.471456
rfingers 7.12502
rthumb 30.9383 -27.8847
lclavicle -8.94531e-016 -1.31198e-014
lhumerus -51.2348 -14.7124 96.5496
lradius 56.3824
lwrist -2.58404
lhand 0.951564 35.6787
lfingers 7.12502
lthumb 26.5015 63.8453
rfemur -10.1614 5.17741 16.3826
rtibia 14.9222
rfoot -12.8335 -22.2069
rtoes -2.76247
lfemur -12.0541 -9.46338 -20.7886
ltibia 11.8937
lfoot -8.00675 6.67317
ltoes -11.5551
2262
root 0.407327 18.2861 -1.04844 7.44417 10.8217 1.79979
lowerback 9.43363 1.27398 -0.501187
upperback -2.72636 1.64247 0.00500861
thorax -8.20293 0.825279 0.0183595
lowerneck -14.9673 -3.55869 -3.86226
upperneck 4.26944 -4.35978 4.21698
head 3.85595 -1.98642 1.58639
rclavicle 3.30976e-014 -1.94809e-014
rhumerus -45.7674 6.59368 -94.6625
rradius 48.8992
rwrist 18.3027
rhand 5.48691 -0.455483
rfingers 7.12502
rthumb 30.8343 -27.8884
lclavicle 3.30976e-014 -1.94809e-014
lhumerus -51.2826 -14.8477 96.6195
lradius 56.6007
lwrist -2.54675
lhand 0.838176 35.6392
lfingers 7.12502
lthumb 26.393 63.8222
rfemur -10.3653 5.20448 16.232
rtibia 14.9645
rfoot -12.7634 -22.226
rtoes -2.61495
lfemur -12.2222 -9.41477 -20.8987
ltibia 11.8859
lfoot -7.94612 6.71698
ltoes -11.9843
